<svg width="120" height="40" viewBox="0 0 120 40" fill="none" xmlns="http://www.w3.org/2000/svg">
  <path d="M5 15H8V25H5V15Z" fill="#333333"/>
  <path d="M11 15V25H14V21H18V25H21V15H18V18H14V15H11Z" fill="#333333"/>
  <path d="M27 15H24V25H33V22H27V15Z" fill="#333333"/>
  <path d="M39 15H36V25H39V15Z" fill="#333333"/>
  <path d="M47 15H44V25H47V22H50V25H53V15H50V18H47V15Z" fill="#333333"/>
  <path d="M55 25V15H58L63 21V15H66V25H63L58 19V25H55Z" fill="#333333"/>
  <path d="M68 15H71V25H68V15Z" fill="#333333"/>
  <path d="M83 19C83 17.3431 81.6569 16 80 16H75V25H78V22H79L81 25H84L82 22C82.6 21.4 83 20.2 83 19ZM78 19V19H80C80 19 80 19 80 19C80 19 80 19 80 19H78V19Z" fill="#333333"/>
  <path d="M93 15H90V25H93V22H96V25H99V15H96V18H93V15Z" fill="#333333"/>
  <path d="M101 21V19C101 16.7909 102.791 15 105 15H109C111.209 15 113 16.7909 113 19V21C113 23.2091 111.209 25 109 25H105C102.791 25 101 23.2091 101 21ZM104 21V19C104 18.4477 104.448 18 105 18H109C109.552 18 110 18.4477 110 19V21C110 21.5523 109.552 22 109 22H105C104.448 22 104 21.5523 104 21Z" fill="#333333"/>
</svg>
