<svg width="600" height="400" viewBox="0 0 600 400" fill="none" xmlns="http://www.w3.org/2000/svg">
  <rect width="600" height="400" fill="url(#paint0_linear)" />
  <path d="M300 150C288.954 150 280 158.954 280 170C280 181.046 288.954 190 300 190C311.046 190 320 181.046 320 170C320 158.954 311.046 150 300 150Z" fill="white"/>
  <path d="M260 200C248.954 200 240 208.954 240 220C240 231.046 248.954 240 260 240C271.046 240 280 231.046 280 220C280 208.954 271.046 200 260 200Z" fill="white"/>
  <path d="M340 200C328.954 200 320 208.954 320 220C320 231.046 328.954 240 340 240C351.046 240 360 231.046 360 220C360 208.954 351.046 200 340 200Z" fill="white"/>
  <path d="M300 250C288.954 250 280 258.954 280 270C280 281.046 288.954 290 300 290C311.046 290 320 281.046 320 270C320 258.954 311.046 250 300 250Z" fill="white"/>
  <path d="M300 190L260 200" stroke="white" stroke-width="2"/>
  <path d="M300 190L340 200" stroke="white" stroke-width="2"/>
  <path d="M260 240L300 250" stroke="white" stroke-width="2"/>
  <path d="M340 240L300 250" stroke="white" stroke-width="2"/>
  <text x="300" y="120" text-anchor="middle" font-family="Arial" font-size="24" fill="white">AI图像生成与处理</text>
  <defs>
    <linearGradient id="paint0_linear" x1="0" y1="0" x2="600" y2="400" gradientUnits="userSpaceOnUse">
      <stop stop-color="#3B82F6"/>
      <stop offset="1" stop-color="#8B5CF6"/>
    </linearGradient>
  </defs>
</svg>
